# xmcd
#
# Track frame offsets: 
#        150
#        30030
#        52467
#        73360
#        93520
#        109365
#        136852
#        153782
#        181987
#
# Disc length: 2539 seconds
#
# Revision: 5
# Processed by: cddbd v1.5.2PL0 Copyright (c) Steve Scherf et al.
# Submitted via: ExactAudioCopy v0.99pb4
#
DISCID=7909e909
DTITLE=Roy Buchanan - When A Guitar Plays The Blues
DYEAR=1985
DGENRE=Blues
TTITLE0=When A Guitar Plays The Blues
TTITLE1=Chicago Smokeshop
TTITLE2=Mrs. Pressure
TTITLE3=A Nickel And A Nail (Otis Clay, Vocal)
TTITLE4=Short Fuse
TTITLE5=Why Don't You Want Me? (Gloria Hardiman, Vocal)
TTITLE6=Country Boy
TTITLE7=Sneaking Godzilla Through The Alley
TTITLE8=Hawaiian Punch
EXTD=YEAR: 1985
EXTT0=
EXTT1=
EXTT2=
EXTT3=
EXTT4=
EXTT5=
EXTT6=
EXTT7=
EXTT8=
PLAYORDER=
